<svg width="24" height="24" viewBox="0 0 24 24" fill="none" xmlns="http://www.w3.org/2000/svg">
<path d="M12 5L12 3" stroke="#044343" stroke-width="2" stroke-linecap="round"/>
<path d="M22 11C21.6249 11 21.4372 10.9996 21.2725 11.0273C20.5879 11.1425 20.012 11.6048 19.751 12.248C19.6882 12.4029 19.6478 12.5861 19.5664 12.9521L18.6963 16.8682C18.3626 18.3695 18.1958 19.1207 17.6475 19.5605C17.0991 20.0005 16.3293 20 14.791 20H9.20898C7.67074 20 6.90095 20.0005 6.35254 19.5605C5.80418 19.1207 5.63735 18.3695 5.30371 16.8682L4.43359 12.9521C4.35225 12.5861 4.31183 12.4029 4.24902 12.248C3.98805 11.6048 3.41208 11.1425 2.72754 11.0273C2.56276 10.9996 2.37511 11 2 11V8H22V11ZM9.48633 12.8359C9.39555 12.2913 8.88059 11.9231 8.33594 12.0137C7.79127 12.1044 7.42307 12.6194 7.51367 13.1641L8.01367 16.1641C8.10445 16.7087 8.61941 17.0769 9.16406 16.9863C9.70873 16.8956 10.0769 16.3806 9.98633 15.8359L9.48633 12.8359ZM15.6641 12.0137C15.1194 11.923 14.6045 12.2912 14.5137 12.8359L14.0137 15.8359C13.9231 16.3806 14.2913 16.8955 14.8359 16.9863C15.3806 17.0769 15.8956 16.7087 15.9863 16.1641L16.4863 13.1641C16.5769 12.6194 16.2087 12.1044 15.6641 12.0137Z" fill="#044343"/>
</svg>
