<svg width="53" height="53" viewBox="0 0 53 53" fill="none" xmlns="http://www.w3.org/2000/svg">
<path d="M14.359 15.4029C14.715 11.8431 14.893 10.0632 15.6236 8.67982C16.5026 7.01553 17.9403 5.71445 19.6838 5.0054C21.1331 4.41602 22.9218 4.41602 26.4993 4.41602C30.0769 4.41602 31.8656 4.41602 33.3149 5.0054C35.0584 5.71445 36.4961 7.01553 37.3751 8.67982C38.1057 10.0632 38.2837 11.8431 38.6397 15.4029L39.3527 22.5329C39.55 24.5062 39.6487 25.4928 39.9796 26.4169C40.3105 27.341 40.8605 28.166 41.9605 29.8161L46.5098 36.6399C47.4222 38.0087 47.8785 38.6931 47.5958 39.2212C47.3132 39.7493 46.4907 39.7493 44.8456 39.7493H8.15305C6.50803 39.7493 5.68551 39.7493 5.40286 39.2212C5.12021 38.6931 5.57645 38.0087 6.48895 36.6399L11.0382 29.8161C12.1382 28.166 12.6882 27.341 13.0191 26.4169C13.35 25.4928 13.4487 24.5062 13.646 22.5329L14.359 15.4029Z" fill="#044343"/>
<path d="M22.2332 45.5566C22.4848 45.7914 23.0393 45.9989 23.8107 46.1468C24.582 46.2948 25.5271 46.375 26.4993 46.375C27.4716 46.375 28.4167 46.2948 29.188 46.1468C29.9594 45.9989 30.5139 45.7914 30.7655 45.5566" stroke="#044343" stroke-width="2" stroke-linecap="round"/>
</svg>
