<svg width="24" height="24" viewBox="0 0 24 24" fill="none" xmlns="http://www.w3.org/2000/svg">
<path fill-rule="evenodd" clip-rule="evenodd" d="M8.37905 2.66859L12.0686 2.08881C15.2892 1.58272 16.8995 1.32967 17.9497 2.22779C19 3.12591 19 4.75596 19 8.01607V10.9996H13.0811L15.7812 7.62459L14.2188 6.37459L10.2188 11.3746L9.71973 11.9996L10.2188 12.6246L14.2188 17.6246L15.7812 16.3746L13.0811 12.9996H19V15.9831C19 19.2432 19 20.8733 17.9497 21.7714C16.8995 22.6695 15.2892 22.4165 12.0686 21.9104L8.37905 21.3306C6.76632 21.0771 5.95995 20.9504 5.47998 20.3891C5 19.8279 5 19.0116 5 17.3791V6.6201C5 4.98758 5 4.17132 5.47998 3.61003C5.95995 3.04874 6.76632 2.92202 8.37905 2.66859Z" fill="white"/>
</svg>
